PathFileType	4	(X/Y/Z)	Apose_0-50.trc
DataRate	CameraRate	NumFrames	NumMarkers	Units	OrigDataRate	OrigDataStartFrame	OrigNumFrames
30	30	9	22	m	30	10	50
Frame#	Time	Hip			RHip			RKnee			RAnkle			RBigToe			RSmallToe			RHeel			LHip			LKnee			LAnkle			LBigToe			LSmallToe			LHeel			Neck			Head			Nose			RShoulder			RElbow			RWrist			LShoulder			LElbow			LWrist		
		X1	Y1	Z1	X2	Y2	Z2	X3	Y3	Z3	X4	Y4	Z4	X5	Y5	Z5	X6	Y6	Z6	X7	Y7	Z7	X8	Y8	Z8	X9	Y9	Z9	X10	Y10	Z10	X11	Y11	Z11	X12	Y12	Z12	X13	Y13	Z13	X14	Y14	Z14	X15	Y15	Z15	X16	Y16	Z16	X17	Y17	Z17	X18	Y18	Z18	X19	Y19	Z19	X20	Y20	Z20	X21	Y21	Z21	X22	Y22	Z22
11	0.36666666666666664	0.030275156697551625	0.9230692354521398	0.3601623755081955	0.016878659074225956	0.8922034953942128	0.46548684540452695	-0.0013975471801026364	0.5098182357291924	0.4982819663048334	-0.002429589922222802	0.11006307305029339	0.5159374107780689	0.19966342738001783	0.03031392059898159	0.5698133102536781	0.1505436077331249	0.023365133195346603	0.6260677602923753	-0.03304398751500281	0.036332725994226434	0.4979052340846039	0.020782947325668502	0.8941172902860179	0.2458051821604002	0.005988819040774635	0.5121747996882962	0.2283835846312876	0.006678190787913764	0.11627740433274424	0.20792407750335132	0.21645385033992381	0.045627571082042906	0.19139532794298028	0.164674142554057	0.03363790005903082	0.12822867373945573	-0.0537371929058808	0.0415000315279715	0.20728251074516013	0.06536653175377925	1.5643755185818304	0.3467981085788659	0.2703161202091629	1.7698844613057076	0.32438145103988275	0.3181702461163851	1.605252012065233	0.3350869611691992	0.017351976476916813	1.495246051138959	0.5357970872461281	0.055670490264785155	1.2333439837563251	0.7186370340478285	0.12160504894054373	1.0433933799286317	0.8987018862185446	0.019252476380143116	1.4800932115345373	0.15287164510575152	0.013819342959295136	1.2278739838370367	0.007232491786728586	0.05148396381199445	1.005904083964319	-0.15037309775219584
12	0.4	0.030583675275861553	0.9228095322750397	0.36014175248647534	0.017320222571459053	0.8893299582079398	0.465012044655244	-0.00021316130967511917	0.5099944590533455	0.49922928594083504	-0.0033856437339773423	0.11107370578981114	0.5172118202055676	0.20003426837914706	0.03225681789379057	0.5687717410109965	0.15349873624691093	0.025033109628175475	0.6243994224831726	-0.034290921360153305	0.03583652675059189	0.4991322756794112	0.022458881369557544	0.8897320367132915	0.2464953875299873	0.0057597417167972575	0.5120133936132989	0.22648739390687014	0.00173461829911849	0.12295532753980039	0.20799871017593136	0.21803881337806344	0.045202732271638235	0.19220072081445513	0.16585982216422407	0.034459331093867805	0.12829715241610568	-0.042446905617808464	0.06004428663380869	0.1954645336519211	0.061961430218741856	1.5648624435604772	0.34895421412106603	0.33465225849331837	1.7633741747755929	0.27709319050113085	0.317645841329266	1.604559333588925	0.33554544410677656	0.016177485492040757	1.4944957479773642	0.5312652924421004	0.053123859566851575	1.234149835271936	0.7172348928631286	0.11890106606562433	1.043190263370468	0.8965650615318631	0.01872778282827167	1.4782142460593402	0.1519572482287232	0.016186549473437936	1.2263350344528972	0.005244551756165992	0.053742238979744235	1.0076673491577777	-0.14886703159500053
13	0.43333333333333335	0.029285662115668475	0.9219864999765451	0.35779289046072377	0.020293351496699155	0.883376043609018	0.4635826988315942	0.000635865435039842	0.5091518366790115	0.5003223603952699	-0.005600420461642465	0.10862599628943338	0.5179532382942001	0.2024528803853298	0.038214255968286016	0.5696145673564986	0.15190369296940184	0.021623293592723337	0.6280453426263736	-0.045037213097559224	0.046863092969902466	0.5066165886528412	0.02259352534547168	0.8828653364838697	0.2465435144531345	0.0063088778569538855	0.5091461021255445	0.22509697407465978	2.9344658098802848e-05	0.12500695402895617	0.20806291136883262	0.21594912162170418	0.04555222689195826	0.19033298400119766	0.16459996726742304	0.03269743720666143	0.12697496137111927	-0.04223825622723617	0.05951144486551832	0.2005233644242328	0.052819502403924336	1.5702714253718761	0.349314796898918	0.2591087719570258	1.7499254125810053	0.34150675453509627	0.31895080876200044	1.6025117882905	0.3356343423925705	0.022414471636706568	1.4926195168352276	0.5363763410081436	0.054346127116527296	1.2357976002257092	0.7178146159936065	0.11824480703624514	1.0462656379337028	0.8940017091062604	0.012970844915248594	1.476369208272582	0.15018783669625407	0.017429699288785478	1.2236699251894594	0.006285485099394621	0.05745292801410452	1.0126196765235485	-0.14665512983581294
14	0.4666666666666667	0.029203000332803125	0.9219382363686143	0.3570411304753681	0.02002448052444599	0.8834592157375701	0.462720377399464	-0.0013781148397239552	0.5095046526249009	0.4982010956105682	-0.0058699061778439855	0.1110648889475353	0.5182631557974821	0.2017077912080016	0.037657265318354415	0.5694785496289305	0.14807823881809737	0.031248897358752102	0.628161268137141	-0.03374179665425767	0.03804131298409295	0.4982250026056852	0.021041157267511105	0.8849850732445391	0.2463031073836488	0.004131231960517308	0.5090882222566651	0.22592680116507793	0.0008901564036157627	0.1227179060036992	0.20755223709171297	0.2169734247714405	0.044082883069798406	0.19307403634495726	0.16751505771146144	0.03283342259811003	0.12682828548747319	-0.04276351804736957	0.060162364650193464	0.19839304800248456	0.052291948759126204	1.5704709072345675	0.34864795695164436	0.2581023013458226	1.7492635208471972	0.3414999469059526	0.3167822816692295	1.6036082258670712	0.33364638586016565	0.01985192330211111	1.4926479403244082	0.5335438215589551	0.051072828722067115	1.2343329022359693	0.7184858631551998	0.11776034669879687	1.045638642114331	0.892667614427981	0.013279263732441236	1.4776618040024136	0.14963239165903233	0.016142664350937624	1.2252322788206096	0.0054348303119469135	0.06514757505923659	1.0191622709520745	-0.13998785970422797
15	0.5	0.03024686719914238	0.9206926148088693	0.3565049188353624	0.020307990068673606	0.8834014079533452	0.4619437696964053	-0.002267810479623662	0.5083535660807993	0.49807429604345355	-0.005995638778547275	0.11309149455535754	0.5166998158013192	0.2016817761503993	0.03874476220106179	0.5675117687332332	0.14756765831094598	0.03138985091027469	0.6292103627602618	-0.0366722882902126	0.04111614034099768	0.49911386921474854	0.022661603567300643	0.8832684737926169	0.2443712646283076	0.005527576723872962	0.5084640107891389	0.2229046950933368	0.006049892591670318	0.11421312392308637	0.20971932005894067	0.21603740375339578	0.04479117930900246	0.19416244201146543	0.16677152561747036	0.03384603752176671	0.1274895666497865	-0.053800452400070996	0.03996040611503566	0.20723089186861116	0.052639859152508885	1.5702734018915192	0.350969946377806	0.25715810707622405	1.751384450655433	0.34216946368188605	0.31728831572078164	1.6036453019461994	0.3340148601552083	0.019706795896723403	1.494419620656319	0.5324337068668117	0.05121335407598573	1.2361451526933496	0.7160911432994028	0.115375562793729	1.0468596187606352	0.8917189485093547	0.012593613607382401	1.4763953925033153	0.15081735521702	0.01902826554137087	1.2228124141834136	0.006906460969163361	0.0689262956033959	1.016931867102442	-0.14031568787516235
16	0.5333333333333333	0.03183893276285824	0.9224310006786579	0.35877550504363886	0.02122273175771146	0.88764399695276	0.4621629428861724	-0.0032499825378523276	0.5072266525492444	0.49698811422726896	-0.011254787080496265	0.12073954510496122	0.5166030331585297	0.20106930501970524	0.03180178669069387	0.5707876065525539	0.1528602228601413	0.023787025631613175	0.626367188052777	-0.035651339962565164	0.037781292491752945	0.4978434426535726	0.025357708630222645	0.8874705568108083	0.24424778571336236	0.004521104556128765	0.5101675053057144	0.22348090304531665	1.2114357241818063e-05	0.1254583937362851	0.20665166373059474	0.21573021535548959	0.04644088430379411	0.18877326119173463	0.16352101337797412	0.03423363383868421	0.12681261714891146	-0.041967693779756315	0.061120321711127176	0.1961315077552189	0.050059571124198024	1.5671010476735765	0.35027139192476964	0.2572129951025371	1.7525856354820135	0.3432413830298204	0.31270782606108705	1.6068498926812846	0.3313337967547775	0.016517524770528008	1.4938868552274984	0.5306913163775764	0.051248101214438756	1.2342599098374496	0.7157812521135822	0.11614084259992268	1.0457511546867002	0.8919296195557672	0.016451305189846305	1.475468622368759	0.15258202834383958	0.021462520025545093	1.2217127087909185	0.005609969002451302	0.0737359517131251	1.0168641018423663	-0.14066249704144865
17	0.5666666666666667	0.0312758382647091	0.9226792542546031	0.35694019464827714	0.020210768710495264	0.8875520692937544	0.4619350951061863	-0.002091681003114769	0.5064319713946324	0.49779727275395014	-0.011266977981477242	0.12095740388172019	0.517037295372728	0.20226155065272722	0.038782381606612126	0.5673847272305527	0.15208460486525233	0.02348376443898538	0.626807856971971	-0.036160800051537934	0.03600336330126531	0.4976725079857656	0.027672599097346755	0.8881255787432417	0.24351882603298786	0.004814896100533808	0.5105766748313948	0.22461275991278548	0.001099691605167539	0.12644853008360102	0.20511941626742997	0.21522007014839134	0.04780447157535587	0.19025454233970793	0.16373480816042837	0.03456463563497804	0.12601576431953274	-0.052616889783159475	0.03918015081772964	0.20869092727005656	0.052032839263320724	1.5698137885759988	0.3483029992528304	0.257136398311454	1.7540543225557257	0.34306680795535693	0.3135248131989359	1.60814056615973	0.33016933812655047	0.015554870129415027	1.494969801384448	0.528179447186556	0.04823289994248387	1.23401678463313	0.7129257408730119	0.1152858089542395	1.0453908501108482	0.8911063754422731	0.016342098171814295	1.4777900353482152	0.15184198709506253	0.021526590836795128	1.2223441474281027	0.004161238745712139	0.06926346902392048	1.0115122768756157	-0.14751474419862862
18	0.6	0.03294518615680341	0.9239276138507443	0.35706588850481624	0.020495380708991297	0.8874360272949797	0.4613491833174986	-0.0012663780973722102	0.506348361767793	0.4968904787277953	-0.008864023814458586	0.12027542522676164	0.51665781315609	0.1962399789516655	0.033018968027832676	0.5632903170330318	0.15778586392181213	0.020396673235621113	0.6243448126740304	-0.03711663870700193	0.03596764506500484	0.49866588903357334	0.02699828124390714	0.8876408743859235	0.24305959497461643	0.006351444658944201	0.511486551945794	0.22385649491322426	-0.0001834510839931351	0.12425131539557771	0.20485248990720223	0.2148234518665781	0.04739253457839566	0.18909845969977368	0.164963372278575	0.034419416115582024	0.12473120371393737	-0.05509050636193202	0.039085944728417046	0.20866913445197663	0.05124731776587428	1.5681806647911543	0.3488158145258493	0.2551550041802532	1.75297584005234	0.34190174550453206	0.3129634269955798	1.6094432959755116	0.3306194421662534	0.013850412180928563	1.4935004185983611	0.5280044474939569	0.04736957012497241	1.2331255929552027	0.7105720645901916	0.1157781985353604	1.0460531103014643	0.8899524021439598	0.015125769500334315	1.4768906691317452	0.151460340046758	0.023959484448272443	1.2225106055868995	0.005076647827857242	0.0749130482816866	1.0176921210109104	-0.14293786935626093
19	0.6333333333333333	0.03308380979497157	0.9227060911958724	0.3569708706439298	0.022179487528446205	0.8872472220512239	0.46110986189404435	-0.00032096882958818675	0.5058897940292084	0.49598037145407886	-0.00840213926917217	0.1214535072223815	0.5174921346644066	0.19417328984236112	0.035712239784532154	0.5603040265282188	0.14411287696957764	0.029788629874027337	0.6299898227099554	-0.03742667462474936	0.0364593973819071	0.49746232700695997	0.02695055176712956	0.8888097533763288	0.240793339640288	0.0093176313353415	0.5095056429476542	0.22323680308406846	0.0024379459830538327	0.12248840852423491	0.20578238262265588	0.21781267018779213	0.04622891025652198	0.18807374253309195	0.1654781362074425	0.03364951300748071	0.12623519287560267	-0.053835492302507476	0.03901164738113433	0.2081301892755019	0.04960682288482332	1.5667328679563353	0.3503401142301809	0.25467685289611186	1.754999909216842	0.3408286881321774	0.2299512846191511	1.5723384100751012	0.3236226160545527	0.013923351850604128	1.493183915995991	0.5268209574652046	0.04820712909260012	1.2330111319436838	0.7116583243920828	0.1146339704472331	1.0461122000359764	0.8870978270026836	0.014699146837851989	1.477136469390241	0.14973845337286174	0.02380676066561352	1.2223096803045848	0.003673610865386201	0.07896665855508521	1.018937204459541	-0.14441498009637255
